<?xml version="1.0" encoding="utf-8"?>
<!-- Generator: Adobe Illustrator 23.1.0, SVG Export Plug-In . SVG Version: 6.00 Build 0)  -->
<svg version="1.1" id="Layer_1" xmlns="http://www.w3.org/2000/svg" xmlns:xlink="http://www.w3.org/1999/xlink" x="0px" y="0px"
	 viewBox="0 0 54 54" style="enable-background:new 0 0 54 54;" xml:space="preserve">
<style type="text/css">
	.st0{fill-rule:evenodd;clip-rule:evenodd;fill:#FFFFFF;}
	.st1{fill-rule:evenodd;clip-rule:evenodd;fill:#F26122;}
	.st2{fill:#5F6B72;}
</style>
<g>
	<ellipse class="st0" cx="26.9" cy="24" rx="22.7" ry="22"/>
	<path class="st1" d="M2.9,24c0,11.2,8.2,20.5,19,22.8h0l5,6.2l5-6.2h0c10.9-2.2,19-11.6,19-22.8c0-12.8-10.7-23.3-24-23.3
		S2.9,11.2,2.9,24z M6.3,24c0-11,9.2-19.9,20.6-19.9S47.5,13,47.5,24S38.3,44,26.9,44S6.3,35,6.3,24z"/>
	<rect x="13.9" y="14.6" class="st2" width="3" height="19"/>
	<rect x="20.8" y="14.6" class="st2" width="3" height="19"/>
	<rect x="24.9" y="14.6" class="st2" width="3" height="19"/>
	<rect x="29.9" y="14.6" class="st2" width="3" height="19"/>
	<rect x="17.9" y="14.6" class="st2" width="1" height="19"/>
	<rect x="33.8" y="14.6" class="st2" width="1" height="19"/>
	<rect x="36.7" y="14.6" class="st2" width="2" height="19"/>
</g>
</svg>
